<svg width="232" height="47" viewBox="0 0 232 47" fill="none" xmlns="http://www.w3.org/2000/svg">
<path d="M0.28625 45.728C0.28625 45.5147 0.264917 45.088 0.22225 44.448C0.22225 43.808 0.22225 43.3813 0.22225 43.168C0.22225 42.3147 0.22225 41.568 0.22225 40.928C0.264917 40.2453 0.307583 39.584 0.35025 38.944C0.392917 38.2613 0.435583 37.5573 0.47825 36.832C0.563583 36.064 0.648917 35.1893 0.73425 34.208C0.947584 33.6107 1.43825 33.312 2.20625 33.312C2.88892 33.312 3.48625 33.6533 3.99825 34.336C4.51025 34.976 5.00092 35.744 5.47025 36.64C5.93958 37.536 6.40892 38.432 6.87825 39.328C7.34758 40.224 7.90225 40.9067 8.54225 41.376C8.62758 41.4613 8.94758 41.6747 9.50225 42.016C10.0996 42.3147 10.8463 42.656 11.7423 43.04C12.6383 43.3813 13.6409 43.7013 14.7503 44C15.8596 44.2987 16.9903 44.448 18.1423 44.448C19.2943 44.448 20.3396 44.256 21.2783 43.872C22.2169 43.4453 23.0063 42.8907 23.6463 42.208C24.2863 41.5253 24.7769 40.7147 25.1183 39.776C25.4596 38.8373 25.6303 37.8347 25.6303 36.768C25.6303 36.0427 25.2889 35.2533 24.6063 34.4C23.9236 33.5467 23.0916 32.7573 22.1103 32.032C21.1289 31.264 20.0836 30.6453 18.9743 30.176C17.9076 29.664 16.9903 29.408 16.2222 29.408C16.0089 29.408 15.7529 29.4933 15.4543 29.664C15.1983 29.792 14.9209 29.9627 14.6223 30.176C14.3236 30.3467 14.0249 30.5173 13.7263 30.688C13.4703 30.816 13.2569 30.88 13.0863 30.88C13.1289 30.6667 13.1503 30.4747 13.1503 30.304C13.1503 30.1333 13.1503 29.984 13.1503 29.856C13.1503 29.2587 13.0649 28.7893 12.8943 28.448C10.4623 27.2107 8.52092 26.1227 7.07025 25.184C5.61958 24.2027 4.51025 23.2213 3.74225 22.24C2.97425 21.216 2.48358 20.128 2.27025 18.976C2.05692 17.824 1.95025 16.4373 1.95025 14.816C1.95025 13.536 2.09958 12.064 2.39825 10.4C2.69692 8.69333 3.27292 7.11467 4.12625 5.664C5.15025 3.91466 6.57958 2.67733 8.41425 1.952C10.2916 1.184 12.2756 0.799999 14.3663 0.799999C15.5609 0.799999 16.6703 0.906666 17.6943 1.12C18.7183 1.33333 19.6996 1.632 20.6383 2.016C21.5769 2.4 22.5156 2.86933 23.4543 3.424C24.3929 3.97866 25.3956 4.59733 26.4623 5.28H26.9743L30.3663 1.248C30.4089 1.248 30.5156 1.248 30.6863 1.248C30.8996 1.20533 31.0489 1.184 31.1343 1.184C31.5183 1.184 31.8809 1.22666 32.2223 1.312C32.6063 1.39733 32.8623 1.65333 32.9903 2.08C33.2036 3.872 33.4169 5.77066 33.6303 7.776C33.8436 9.73866 33.9503 11.616 33.9503 13.408C33.9503 13.6213 33.8649 13.8133 33.6943 13.984C33.5236 14.112 33.3103 14.2187 33.0543 14.304C32.7983 14.3467 32.5209 14.3893 32.2223 14.432C31.9663 14.432 31.7529 14.432 31.5823 14.432C31.3263 14.432 30.8996 14.176 30.3022 13.664C29.7049 13.1093 28.9583 12.4267 28.0623 11.616C27.2089 10.8053 26.2489 9.952 25.1823 9.056C24.1583 8.11733 23.0916 7.24267 21.9823 6.432C20.8729 5.62133 19.7849 4.96 18.7183 4.448C17.6516 3.89333 16.6489 3.616 15.7103 3.616C14.7289 3.616 13.7263 3.70133 12.7023 3.872C11.7209 4.04266 10.8249 4.34133 10.0143 4.768C9.20358 5.19466 8.54225 5.77066 8.03025 6.496C7.51825 7.22133 7.26225 8.13867 7.26225 9.248C7.26225 9.888 7.49692 10.592 7.96625 11.36C8.43558 12.0853 9.24625 12.8747 10.3983 13.728C11.5503 14.5813 13.1076 15.4773 15.0703 16.416C17.0329 17.3547 19.5076 18.336 22.4943 19.36C22.5796 19.2747 22.7503 19.0613 23.0063 18.72C23.2623 18.336 23.5396 17.952 23.8383 17.568C24.1369 17.1413 24.4356 16.7787 24.7343 16.48C25.0329 16.1387 25.2463 15.968 25.3743 15.968C25.7156 15.968 25.9716 16.096 26.1423 16.352C26.3556 16.5653 26.4623 16.8213 26.4623 17.12C26.4623 17.248 26.3983 17.44 26.2703 17.696C26.1849 17.952 26.0569 18.2293 25.8863 18.528C25.7156 18.8267 25.5449 19.1253 25.3743 19.424C25.2463 19.68 25.1609 19.8933 25.1183 20.064C26.5689 21.088 27.8063 22.048 28.8303 22.944C29.8969 23.84 30.7716 24.7787 31.4543 25.76C32.1369 26.7413 32.6276 27.8293 32.9263 29.024C33.2676 30.176 33.4383 31.52 33.4383 33.056C33.4383 34.8907 33.0329 36.6187 32.2223 38.24C31.4116 39.8613 30.2809 41.2907 28.8303 42.528C27.3796 43.7653 25.6303 44.7467 23.5823 45.472C21.5343 46.1973 19.2943 46.56 16.8623 46.56C14.4729 46.56 12.1049 46.1547 9.75825 45.344C7.45425 44.576 5.57692 43.2533 4.12625 41.376C4.12625 41.376 4.08358 41.3547 3.99825 41.312C3.91292 41.312 3.78492 41.376 3.61425 41.504C3.44358 41.5893 3.35825 41.6747 3.35825 41.76L2.46225 46.112C2.41958 46.3253 2.31292 46.4533 2.14225 46.496C1.97158 46.5387 1.77958 46.56 1.56625 46.56C1.22492 46.56 0.968917 46.496 0.79825 46.368C0.67025 46.2827 0.499583 46.0693 0.28625 45.728ZM4.51025 9.504C4.51025 9.67466 4.51025 10.0587 4.51025 10.656C4.51025 11.2107 4.48892 11.8293 4.44625 12.512C4.44625 13.1947 4.44625 13.8347 4.44625 14.432C4.44625 15.0293 4.44625 15.4133 4.44625 15.584C4.44625 16.1387 4.51025 16.6933 4.63825 17.248C4.76625 17.76 4.91558 18.2507 5.08625 18.72C5.29958 19.4027 5.59825 20.1067 5.98225 20.832C6.40892 21.5573 7.17692 22.3467 8.28625 23.2C9.43825 24.0107 11.0596 24.9067 13.1503 25.888C15.2409 26.8267 18.0783 27.8507 21.6623 28.96C24.0516 29.728 25.6516 30.752 26.4623 32.032C27.3156 33.312 27.7423 34.7413 27.7423 36.32C27.7423 37.8987 27.4436 39.5413 26.8463 41.248C27.2303 41.248 27.6569 41.056 28.1263 40.672C28.5956 40.2453 29.0223 39.648 29.4062 38.88C29.8329 38.0693 30.1743 37.088 30.4303 35.936C30.7289 34.784 30.8783 33.4827 30.8783 32.032C30.8783 29.856 30.2809 28.0427 29.0863 26.592C27.8916 25.1413 26.3769 23.904 24.5423 22.88C22.7076 21.8133 20.7023 20.8747 18.5263 20.064C16.3503 19.2533 14.2809 18.3787 12.3183 17.44C10.3983 16.5013 8.71292 15.4133 7.26225 14.176C5.81158 12.9387 4.89425 11.3813 4.51025 9.504ZM27.9343 7.648C27.9343 7.73333 28.0836 7.98933 28.3823 8.416C28.6809 8.8 29.0009 9.20533 29.3423 9.632C29.6836 10.0587 30.0036 10.4427 30.3022 10.784C30.6436 11.1253 30.8569 11.296 30.9423 11.296H31.4543C31.4543 11.296 31.4116 11.0613 31.3263 10.592C31.2409 10.1227 31.1343 9.58933 31.0063 8.992C30.9209 8.352 30.8143 7.73333 30.6863 7.136C30.5583 6.496 30.4516 6.00533 30.3663 5.664C30.1956 5.792 29.9609 5.94133 29.6623 6.112C29.4063 6.24 29.1503 6.38933 28.8943 6.56C28.6383 6.73066 28.4036 6.92266 28.1903 7.136C28.0196 7.30666 27.9343 7.47733 27.9343 7.648ZM43.2723 34.336C43.2723 34.2933 43.2936 33.9093 43.3363 33.184C43.4216 32.4587 43.5069 31.584 43.5923 30.56C43.7203 29.4933 43.8269 28.384 43.9123 27.232C43.9976 26.08 44.0829 25.056 44.1683 24.16C44.1683 24.1173 44.1469 23.968 44.1042 23.712C44.1042 23.4133 44.1042 23.1147 44.1042 22.816C44.1042 22.5173 44.0829 22.24 44.0403 21.984C44.0403 21.6853 44.0403 21.472 44.0403 21.344H36.1683C35.8696 21.344 35.6562 21.152 35.5282 20.768C35.3576 20.384 35.2722 20.0853 35.2722 19.872C35.2722 19.232 35.5709 18.784 36.1683 18.528C36.8509 18.4853 37.6616 18.4427 38.6003 18.4C39.5389 18.3147 40.4349 18.2507 41.2883 18.208C42.1843 18.1227 42.9736 18.0373 43.6562 17.952C44.3389 17.8667 44.7656 17.7813 44.9363 17.696C45.0216 17.184 45.1069 16.6507 45.1923 16.096C45.2776 15.5413 45.3203 14.9013 45.3203 14.176C45.3203 14.048 45.2989 13.8133 45.2563 13.472C45.2136 13.088 45.1709 12.704 45.1283 12.32C45.0856 11.936 45.0429 11.5733 45.0003 11.232C44.9576 10.8907 44.9363 10.656 44.9363 10.528C44.9363 10.528 44.8509 10.5493 44.6803 10.592C44.5523 10.592 44.3603 10.6133 44.1042 10.656C43.8483 10.656 43.5709 10.6987 43.2723 10.784C42.9736 10.8267 42.7176 10.8693 42.5043 10.912C42.0349 10.912 41.5869 10.7413 41.1603 10.4C40.7336 10.0587 40.5203 9.61066 40.5203 9.056C40.5203 8.544 40.7123 8.13867 41.0963 7.84C41.5229 7.49867 42.0563 7.22133 42.6963 7.008C43.3363 6.79467 44.0616 6.624 44.8723 6.496C45.6829 6.368 46.5149 6.24 47.3683 6.112C47.4109 6.112 47.5389 6.13333 47.7523 6.176C48.0083 6.176 48.2643 6.176 48.5203 6.176C48.6056 6.176 48.6909 6.176 48.7763 6.176C48.8616 6.13333 48.9256 6.112 48.9683 6.112C49.5656 5.94133 50.1416 5.70667 50.6963 5.408C51.2936 5.06667 51.8696 4.74667 52.4243 4.448C53.0216 4.10666 53.6189 3.82933 54.2163 3.616C54.8563 3.40266 55.5176 3.296 56.2003 3.296C56.9256 3.296 57.3523 3.552 57.4803 4.064C57.6509 4.53333 57.7363 5.10933 57.7363 5.792C57.7363 5.74933 57.6936 5.984 57.6083 6.496C57.5229 7.008 57.4163 7.648 57.2883 8.416C57.2029 9.184 57.1176 9.99466 57.0323 10.848C56.9469 11.7013 56.9043 12.4267 56.9043 13.024C56.9043 13.3653 56.9043 13.792 56.9043 14.304C56.9469 14.816 56.9683 15.328 56.9683 15.84C57.0109 16.352 57.0323 16.8213 57.0323 17.248C57.0749 17.6747 57.0963 17.9733 57.0963 18.144C58.0776 18.144 59.0376 18.0587 59.9763 17.888C60.9149 17.7173 61.8749 17.632 62.8563 17.632C63.2829 17.632 63.6669 17.7173 64.0083 17.888C64.3496 18.0587 64.5203 18.4 64.5203 18.912C64.5203 19.1253 64.4989 19.3387 64.4563 19.552C64.4563 19.7227 64.3496 19.936 64.1363 20.192C63.4963 20.192 62.7923 20.2347 62.0243 20.32C61.2563 20.3627 60.5096 20.4267 59.7843 20.512C59.1016 20.5973 58.5043 20.6827 57.9923 20.768C57.4803 20.8107 57.1389 20.8533 56.9683 20.896C56.8403 20.9813 56.6909 21.3227 56.5203 21.92C56.3496 22.5173 56.1789 23.2 56.0083 23.968C55.8803 24.736 55.7523 25.5253 55.6243 26.336C55.4963 27.104 55.4109 27.7227 55.3683 28.192C55.3683 29.0453 55.3256 29.792 55.2403 30.432C55.1549 31.072 55.0483 31.7333 54.9203 32.416C54.7923 33.0987 54.6856 33.8453 54.6003 34.656C54.5149 35.4667 54.4722 36.4267 54.4722 37.536C54.4722 38.3893 54.7923 39.1787 55.4323 39.904C56.0723 40.6293 56.8403 40.992 57.7363 40.992C58.0776 40.992 58.4616 40.9707 58.8883 40.928C59.3149 40.8853 59.7416 40.864 60.1683 40.864C60.7656 40.864 61.2989 40.9493 61.7683 41.12C62.2803 41.2907 62.5363 41.696 62.5363 42.336C62.5363 42.3787 62.5149 42.4213 62.4723 42.464V42.528C62.0029 43.168 61.3203 43.68 60.4243 44.064C59.5283 44.448 58.5896 44.7253 57.6083 44.896C56.6269 45.1093 55.6669 45.2373 54.7283 45.28C53.7896 45.3227 53.0429 45.344 52.4883 45.344C50.5683 45.344 49.0109 45.0027 47.8163 44.32C46.6216 43.6373 45.6829 42.7627 45.0003 41.696C44.3176 40.6293 43.8483 39.456 43.5923 38.176C43.3789 36.8533 43.2723 35.5733 43.2723 34.336ZM46.4723 34.144C46.4723 35.2107 46.5149 36.2133 46.6003 37.152C46.6856 38.0907 46.9203 38.9013 47.3043 39.584C47.6883 40.2667 48.2429 40.8 48.9683 41.184C49.7363 41.568 50.8029 41.76 52.1683 41.76C52.2536 41.76 52.4456 41.76 52.7443 41.76C53.0429 41.7173 53.2349 41.696 53.3203 41.696C52.7656 40.8427 52.4243 40.0107 52.2963 39.2C52.1683 38.3467 52.1042 37.408 52.1042 36.384C52.1042 34.976 52.1683 33.7173 52.2963 32.608C52.4243 31.4987 52.4883 30.5813 52.4883 29.856C52.4883 29.216 52.4883 28.704 52.4883 28.32C52.4883 27.936 52.5096 27.616 52.5522 27.36C52.5949 27.0613 52.6376 26.8053 52.6803 26.592C52.7229 26.336 52.8083 26.0373 52.9363 25.696C53.4909 22.368 53.8323 19.2533 53.9603 16.352C54.1309 13.408 54.2163 10.3787 54.2163 7.264C54.0456 7.30667 53.6403 7.41333 53.0003 7.584C52.4029 7.712 51.7629 7.92533 51.0803 8.224C50.4403 8.48 49.8429 8.8 49.2883 9.184C48.7763 9.52533 48.5203 9.952 48.5203 10.464C48.5203 11.4027 48.4563 12.576 48.3283 13.984C48.2429 15.392 48.1149 16.8853 47.9443 18.464C47.8163 20.0427 47.6669 21.664 47.4963 23.328C47.3256 24.9493 47.1549 26.4853 46.9843 27.936C46.8563 29.344 46.7283 30.6027 46.6003 31.712C46.5149 32.8213 46.4723 33.632 46.4723 34.144ZM68.1673 43.744C68.1673 42.9333 68.3806 42.4213 68.8073 42.208C69.2766 41.9947 69.8099 41.888 70.4073 41.888C71.0046 41.8453 71.5806 41.8027 72.1353 41.76C72.7326 41.7173 73.1379 41.4827 73.3513 41.056C73.3513 40.928 73.3513 40.7147 73.3513 40.416C73.3513 40.0747 73.3513 39.7333 73.3513 39.392C73.3939 39.0507 73.4153 38.7307 73.4153 38.432C73.4153 38.1333 73.4153 37.92 73.4153 37.792C73.4153 35.5307 73.3299 33.312 73.1593 31.136C72.9886 28.96 72.6473 26.7627 72.1353 24.544C71.6233 23.776 71.0046 23.328 70.2793 23.2C69.5539 23.072 68.8499 23.008 68.1673 23.008C67.5273 22.9653 66.9513 22.88 66.4393 22.752C65.9699 22.5813 65.7353 22.112 65.7353 21.344C65.7353 20.9173 66.0339 20.5333 66.6313 20.192C67.2713 19.8507 67.9966 19.552 68.8073 19.296C69.6606 19.04 70.4713 18.8267 71.2393 18.656C72.0499 18.4427 72.6259 18.272 72.9673 18.144C74.5886 17.5467 76.2526 16.928 77.9593 16.288C79.7086 15.648 81.5219 15.328 83.3993 15.328C83.9113 15.328 84.2313 15.456 84.3593 15.712C84.5299 15.9253 84.6153 16.4587 84.6153 17.312C84.6153 17.6533 84.5939 17.9947 84.5513 18.336C84.5086 18.6773 84.4019 19.0187 84.2313 19.36C84.2313 21.7067 84.2099 23.904 84.1673 25.952C84.1673 27.9573 84.1673 29.4507 84.1673 30.432C84.1673 31.584 84.1673 32.5227 84.1673 33.248C84.2099 33.9307 84.2739 34.5707 84.3593 35.168C84.4873 35.7227 84.6366 36.2987 84.8073 36.896C84.9779 37.4933 85.2126 38.2827 85.5113 39.264C85.6393 39.8613 85.9593 40.3947 86.4713 40.864C86.9833 41.2907 87.5166 41.696 88.0713 42.08C88.6259 42.4213 89.1166 42.7413 89.5433 43.04C90.0126 43.296 90.2473 43.5307 90.2473 43.744C90.2473 44.4693 89.9913 44.9173 89.4793 45.088C88.9673 45.3013 88.3913 45.408 87.7513 45.408C87.6659 45.408 87.5166 45.3867 87.3033 45.344C87.1326 45.344 87.0259 45.344 86.9833 45.344C85.7459 44.96 84.3806 44.7253 82.8873 44.64C81.3939 44.5547 79.9433 44.512 78.5353 44.512C77.1273 44.512 75.7406 44.576 74.3753 44.704C73.0526 44.832 71.6446 45.0453 70.1513 45.344C70.0659 45.344 70.0019 45.344 69.9593 45.344C69.9166 45.3867 69.8526 45.408 69.7673 45.408C68.7006 45.408 68.1673 44.8533 68.1673 43.744ZM76.9353 41.376H83.3353C83.2073 41.0773 83.0579 40.6293 82.8873 40.032C82.7166 39.392 82.5459 38.7733 82.3753 38.176C82.2046 37.536 82.0553 36.9813 81.9272 36.512C81.7993 36.0427 81.7353 35.8293 81.7353 35.872C81.7353 34.5493 81.7139 33.184 81.6713 31.776C81.6286 30.3253 81.5859 28.9173 81.5433 27.552C81.5006 26.144 81.4579 24.8213 81.4153 23.584C81.3726 22.304 81.3513 21.1733 81.3513 20.192L80.9673 18.976C80.4553 19.1467 79.9433 19.2533 79.4313 19.296C78.9619 19.3387 78.4286 19.36 77.8313 19.36C77.6179 19.36 77.2979 19.424 76.8713 19.552C76.4446 19.68 75.9753 19.8293 75.4633 20C74.9939 20.128 74.5459 20.2987 74.1193 20.512C73.7353 20.6827 73.4793 20.832 73.3513 20.96C73.9913 21.344 74.4606 22.0053 74.7593 22.944C75.0579 23.8827 75.2499 24.6933 75.3353 25.376C75.3353 25.504 75.3779 26.1227 75.4633 27.232C75.5913 28.3413 75.6979 29.664 75.7833 31.2C75.8686 32.736 75.9539 34.3573 76.0393 36.064C76.1246 37.728 76.1673 39.2213 76.1673 40.544L76.9353 41.376ZM70.1513 7.968C70.1513 6.09066 70.6846 4.53333 71.7513 3.296C72.8179 2.016 74.1619 0.970665 75.7833 0.159996C77.5753 0.159996 79.0046 0.671997 80.0713 1.696C81.1806 2.67733 81.7353 4.04267 81.7353 5.792C81.7353 6.64533 81.5006 7.52 81.0312 8.416C80.6046 9.26933 80.0286 10.0373 79.3033 10.72C78.6206 11.4027 77.8526 11.9573 76.9993 12.384C76.1459 12.8107 75.2926 13.024 74.4392 13.024C72.9033 13.024 71.7939 12.5547 71.1113 11.616C70.4713 10.6773 70.1513 9.46133 70.1513 7.968ZM72.9033 7.712C72.9033 8.52266 73.0313 9.14133 73.2873 9.568C73.5859 9.952 74.1406 10.144 74.9513 10.144C75.4633 10.144 75.9753 9.99466 76.4873 9.696C77.0419 9.35467 77.5113 8.97066 77.8953 8.544C78.3219 8.07467 78.6633 7.62667 78.9193 7.2C79.2179 6.73066 79.3673 6.38933 79.3673 6.176C79.3673 6.09066 79.2393 5.83466 78.9833 5.408C78.7273 4.93866 78.5779 4.66133 78.5353 4.576C78.5353 4.53333 78.5139 4.42666 78.4713 4.256C78.4713 4.08533 78.4286 3.91467 78.3433 3.744C78.2579 3.53067 78.1086 3.33867 77.8953 3.168C77.7246 2.99733 77.4686 2.912 77.1273 2.912C76.6153 3.08267 76.1033 3.31733 75.5913 3.616C75.1219 3.91467 74.6739 4.27733 74.2473 4.704C73.8633 5.088 73.5433 5.536 73.2873 6.048C73.0313 6.56 72.9033 7.11466 72.9033 7.712ZM108.847 45.856C106.458 45.856 104.239 45.6213 102.191 45.152C100.186 44.6827 98.4366 43.8933 96.9433 42.784C95.4499 41.632 94.2766 40.096 93.4233 38.176C92.5699 36.256 92.1432 33.8453 92.1432 30.944C92.1432 29.2373 92.4633 27.552 93.1033 25.888C93.7859 24.224 94.7886 22.752 96.1113 21.472C97.4766 20.1493 99.1406 19.0827 101.103 18.272C103.109 17.4613 105.455 17.056 108.143 17.056C109.423 17.056 110.597 17.184 111.663 17.44C112.773 17.6533 113.967 17.76 115.247 17.76C116.442 17.76 117.423 17.5893 118.191 17.248C118.959 16.9067 119.642 16.5013 120.239 16.032C120.41 16.032 120.623 16.096 120.879 16.224C121.135 16.3093 121.391 16.416 121.647 16.544C121.903 16.672 122.117 16.8 122.287 16.928C122.458 17.056 122.543 17.1413 122.543 17.184V24.48C122.543 24.9067 122.287 25.2693 121.775 25.568C121.263 25.8667 120.815 26.016 120.431 26.016C119.919 26.016 119.343 25.7173 118.703 25.12C118.106 24.48 117.381 23.7973 116.527 23.072C115.674 22.304 114.671 21.6213 113.519 21.024C112.367 20.384 111.023 20.064 109.487 20.064C109.018 20.064 108.591 20.192 108.207 20.448C107.823 20.6613 107.503 20.9387 107.247 21.28C106.437 22.3467 105.818 23.4133 105.391 24.48C104.965 25.5467 104.645 26.592 104.431 27.616C104.261 28.5973 104.154 29.5573 104.111 30.496C104.069 31.392 104.047 32.224 104.047 32.992C104.047 34.272 104.197 35.552 104.495 36.832C104.837 38.0693 105.263 39.2 105.775 40.224C106.33 41.2053 106.949 42.016 107.631 42.656C108.357 43.296 109.082 43.616 109.807 43.616C111.599 43.616 113.199 43.2533 114.607 42.528C116.058 41.8027 117.381 40.864 118.575 39.712C118.831 39.4133 119.023 39.0933 119.151 38.752C119.279 38.368 119.429 38.0267 119.599 37.728C119.77 37.3867 120.005 37.1093 120.303 36.896C120.602 36.6827 121.029 36.576 121.583 36.576C122.266 36.576 122.735 36.7893 122.991 37.216C123.247 37.6427 123.375 38.0693 123.375 38.496C123.333 38.5813 123.226 38.7307 123.055 38.944C122.927 39.1573 122.757 39.392 122.543 39.648C122.373 39.904 122.181 40.16 121.967 40.416C121.797 40.6293 121.669 40.7787 121.583 40.864C120.645 41.8453 119.706 42.656 118.767 43.296C117.871 43.936 116.911 44.448 115.887 44.832C114.863 45.216 113.775 45.472 112.623 45.6C111.471 45.7707 110.213 45.856 108.847 45.856ZM95.7273 32.544C95.7273 33.696 95.8979 34.8907 96.2393 36.128C96.5806 37.3227 97.0713 38.4107 97.7113 39.392C98.3513 40.3733 99.1193 41.184 100.015 41.824C100.954 42.464 101.999 42.784 103.151 42.784H103.407C103.493 42.784 103.557 42.784 103.599 42.784C103.642 42.7413 103.685 42.72 103.727 42.72C103.045 42.2933 102.511 41.6107 102.127 40.672C101.786 39.7333 101.53 38.752 101.359 37.728C101.189 36.6613 101.082 35.6587 101.039 34.72C101.039 33.7387 101.039 32.992 101.039 32.48C101.039 31.84 101.082 30.9867 101.167 29.92C101.295 28.8533 101.423 27.7653 101.551 26.656C101.722 25.504 101.914 24.416 102.127 23.392C102.341 22.3253 102.554 21.472 102.767 20.832C101.914 21.1307 101.061 21.5147 100.207 21.984C99.3966 22.4533 98.6499 23.1147 97.9673 23.968C97.2846 24.8213 96.7299 25.952 96.3033 27.36C95.9193 28.7253 95.7273 30.4533 95.7273 32.544ZM119.599 22.432C119.77 22.2187 119.877 21.984 119.919 21.728C119.962 21.472 119.983 21.2373 119.983 21.024C119.983 20.7253 119.941 20.4267 119.855 20.128C119.77 19.7867 119.685 19.488 119.599 19.232L116.783 20.64L119.599 22.432ZM126.823 44.192C126.823 43.6373 126.994 43.2107 127.335 42.912C127.677 42.5707 128.039 42.2507 128.423 41.952C128.85 41.6107 129.234 41.2267 129.575 40.8C129.917 40.3733 130.087 39.7547 130.087 38.944C130.301 37.408 130.471 36.0853 130.599 34.976C130.727 33.824 130.813 32.7573 130.855 31.776C130.941 30.752 130.983 29.7067 130.983 28.64C130.983 27.5307 130.983 26.2293 130.983 24.736C130.983 23.2427 130.962 21.9627 130.919 20.896C130.919 19.8293 130.877 18.8267 130.791 17.888C130.749 16.9493 130.663 15.968 130.535 14.944C130.45 13.92 130.301 12.704 130.087 11.296C129.959 10.528 129.725 10.016 129.383 9.76C129.042 9.504 128.658 9.35467 128.231 9.312C127.805 9.22666 127.357 9.14133 126.887 9.056C126.418 8.928 126.013 8.62933 125.671 8.16C125.671 8.11733 125.65 8.07466 125.607 8.032C125.607 7.98933 125.607 7.94667 125.607 7.904C125.607 7.30667 125.885 6.85867 126.439 6.56C126.994 6.26133 127.549 6.112 128.103 6.112C128.189 6.112 128.253 6.13333 128.295 6.176C128.338 6.176 128.402 6.176 128.487 6.176C128.829 6.048 129.426 5.792 130.279 5.408C131.133 5.024 132.007 4.61866 132.903 4.192C133.842 3.76533 134.717 3.36 135.527 2.976C136.381 2.592 136.978 2.31466 137.319 2.144C137.49 2.10133 137.703 1.97333 137.959 1.76C138.215 1.504 138.471 1.26933 138.727 1.056C139.026 0.799998 139.303 0.586664 139.559 0.415997C139.858 0.202663 140.114 0.0959969 140.327 0.0959969C140.967 0.0959969 141.351 0.30933 141.479 0.735996C141.65 1.12 141.735 1.48266 141.735 1.824C141.735 2.29333 141.714 2.74133 141.671 3.168C141.629 3.59467 141.501 4.04266 141.287 4.512C141.159 6.09066 141.031 7.94666 140.903 10.08C140.818 12.1707 140.733 14.1973 140.647 16.16C140.605 18.08 140.562 19.744 140.519 21.152C140.477 22.56 140.455 23.3707 140.455 23.584C140.455 23.712 140.455 23.9467 140.455 24.288C140.455 24.5867 140.455 24.928 140.455 25.312C140.498 25.6533 140.519 25.9947 140.519 26.336C140.519 26.6347 140.519 26.848 140.519 26.976C142.439 25.8667 144.381 24.608 146.343 23.2C148.306 21.7493 150.119 20.2133 151.783 18.592C151.186 18.5067 150.567 18.3787 149.927 18.208C149.33 17.9947 149.031 17.504 149.031 16.736C149.031 16.0533 149.394 15.6053 150.119 15.392C150.845 15.136 151.741 15.008 152.807 15.008C153.49 15.008 154.237 15.0293 155.047 15.072C155.901 15.1147 156.669 15.2213 157.351 15.392C158.077 15.52 158.674 15.7333 159.143 16.032C159.655 16.3307 159.911 16.7573 159.911 17.312C159.911 17.696 159.783 17.9947 159.527 18.208C159.271 18.4213 158.93 18.592 158.503 18.72C158.077 18.848 157.607 18.9333 157.095 18.976C156.626 18.976 156.178 18.976 155.751 18.976L147.687 25.312C149.095 26.08 150.397 27.1467 151.591 28.512C152.786 29.8347 153.874 31.2213 154.855 32.672C155.879 34.08 156.818 35.4453 157.671 36.768C158.567 38.0907 159.399 39.1147 160.167 39.84C160.466 40.1387 160.871 40.3947 161.383 40.608C161.938 40.7787 162.471 40.992 162.983 41.248C163.538 41.4613 164.007 41.7173 164.391 42.016C164.775 42.3147 164.967 42.72 164.967 43.232C164.967 43.5733 164.754 43.8293 164.327 44C163.943 44.2133 163.453 44.3627 162.855 44.448C162.258 44.5333 161.618 44.5973 160.935 44.64C160.253 44.6827 159.634 44.704 159.079 44.704C158.397 44.704 157.799 44.6827 157.287 44.64C156.818 44.64 156.37 44.6187 155.943 44.576C155.559 44.576 155.175 44.5333 154.791 44.448C154.407 44.3627 153.981 44.256 153.511 44.128C152.445 43.8293 151.549 43.296 150.823 42.528C150.141 41.7173 149.522 40.8213 148.967 39.84C148.455 38.816 147.965 37.7493 147.495 36.64C147.069 35.5307 146.599 34.528 146.087 33.632C145.575 32.6933 144.978 31.9253 144.295 31.328C143.655 30.7307 142.845 30.432 141.863 30.432C141.693 30.432 141.437 30.4533 141.095 30.496C140.797 30.496 140.605 30.5173 140.519 30.56L139.687 31.328C139.687 31.328 139.666 31.4987 139.623 31.84C139.581 32.1813 139.538 32.5653 139.495 32.992C139.453 33.4187 139.41 33.824 139.367 34.208C139.325 34.592 139.303 34.848 139.303 34.976C139.303 35.1893 139.325 35.5947 139.367 36.192C139.41 36.7467 139.431 37.344 139.431 37.984C139.474 38.624 139.517 39.2427 139.559 39.84C139.602 40.3947 139.645 40.7787 139.687 40.992C139.815 41.4187 140.135 41.6747 140.647 41.76C141.202 41.8453 141.757 41.9307 142.311 42.016C142.909 42.1013 143.442 42.272 143.911 42.528C144.381 42.784 144.615 43.2533 144.615 43.936C144.615 44.6187 144.338 44.96 143.783 44.96C143.442 44.96 142.887 44.9813 142.119 45.024C141.351 45.0667 140.477 45.1093 139.495 45.152C138.514 45.1947 137.469 45.2373 136.359 45.28C135.293 45.3653 134.247 45.4293 133.223 45.472C132.242 45.5573 131.367 45.6213 130.599 45.664C129.831 45.7067 129.255 45.7493 128.871 45.792C127.506 45.792 126.823 45.2587 126.823 44.192ZM133.351 25.632C133.351 26.1867 133.309 27.104 133.223 28.384C133.181 29.6213 133.095 31.0293 132.967 32.608C132.839 34.1867 132.69 35.8293 132.519 37.536C132.391 39.2 132.242 40.736 132.071 42.144C132.626 42.144 133.074 42.144 133.415 42.144C133.799 42.144 134.141 42.144 134.439 42.144C134.738 42.1013 135.037 42.0587 135.335 42.016C135.677 41.9307 136.061 41.8453 136.487 41.76C136.445 41.6747 136.423 41.5253 136.423 41.312C136.423 41.056 136.423 40.8 136.423 40.544C136.423 40.16 136.466 39.4133 136.551 38.304C136.637 37.1947 136.743 35.936 136.871 34.528C136.999 33.0773 137.127 31.5413 137.255 29.92C137.426 28.256 137.575 26.6987 137.703 25.248C137.831 23.7547 137.938 22.4533 138.023 21.344C138.109 20.2347 138.151 19.4453 138.151 18.976C138.151 18.72 138.173 18.336 138.215 17.824C138.258 17.2693 138.279 16.6507 138.279 15.968C138.322 15.2853 138.365 14.5813 138.407 13.856C138.45 13.1307 138.471 12.4267 138.471 11.744C138.471 11.5307 138.45 10.8267 138.407 9.632C138.407 8.43733 138.322 6.88 138.151 4.96C137.426 5.17333 136.402 5.62133 135.079 6.304C133.799 6.944 132.541 7.56267 131.303 8.16C131.815 9.61067 132.199 11.168 132.455 12.832C132.754 14.4533 132.967 16.0747 133.095 17.696C133.223 19.2747 133.287 20.768 133.287 22.176C133.33 23.5413 133.351 24.6933 133.351 25.632ZM144.167 28.704C145.405 29.6 146.578 30.5813 147.687 31.648C148.839 32.672 149.693 33.8667 150.247 35.232C150.546 35.9573 150.823 36.704 151.079 37.472C151.378 38.24 151.783 38.944 152.295 39.584C152.807 40.224 153.469 40.7573 154.279 41.184C155.133 41.6107 156.263 41.824 157.671 41.824C156.605 40.8853 155.815 39.9467 155.303 39.008C154.791 38.0693 154.237 37.0667 153.639 36C153.085 34.8907 152.317 33.696 151.335 32.416C150.397 31.0933 148.946 29.5573 146.983 27.808C146.855 27.808 146.642 27.872 146.343 28C146.045 28.0853 145.746 28.192 145.447 28.32C145.149 28.4053 144.871 28.4907 144.615 28.576C144.359 28.6613 144.21 28.704 144.167 28.704ZM164.948 30.688C164.948 28.8533 165.61 26.9973 166.932 25.12C168.255 23.2427 169.876 21.5573 171.796 20.064C173.716 18.528 175.764 17.2907 177.94 16.352C180.159 15.4133 182.164 14.944 183.956 14.944C185.066 14.944 186.303 15.072 187.668 15.328C189.034 15.5413 190.292 15.9467 191.444 16.544C192.639 17.0987 193.642 17.888 194.452 18.912C195.263 19.8933 195.668 21.1307 195.668 22.624C195.668 24.5867 195.114 26.336 194.004 27.872C192.938 29.408 191.572 30.7307 189.908 31.84C188.287 32.9493 186.495 33.8453 184.532 34.528C182.57 35.168 180.714 35.5733 178.964 35.744C178.964 35.8293 178.943 35.9787 178.9 36.192C178.9 36.3627 178.9 36.4907 178.9 36.576C178.9 37.0453 178.943 37.5787 179.028 38.176C179.156 38.7733 179.327 39.3707 179.54 39.968C179.754 40.5227 180.01 41.0347 180.308 41.504C180.65 41.9733 181.034 42.336 181.46 42.592C181.546 42.6347 181.802 42.656 182.228 42.656C182.698 42.656 182.996 42.656 183.124 42.656C183.466 42.656 183.935 42.6347 184.532 42.592C185.13 42.5493 185.791 42.464 186.516 42.336C187.284 42.1653 188.074 41.952 188.884 41.696C189.738 41.3973 190.591 41.0133 191.444 40.544C191.914 40.288 192.383 39.904 192.852 39.392C193.364 38.8373 193.855 38.304 194.324 37.792C194.836 37.2373 195.306 36.768 195.732 36.384C196.159 35.9573 196.564 35.744 196.948 35.744C197.247 35.744 197.482 35.936 197.652 36.32C197.823 36.704 197.908 36.9813 197.908 37.152C197.951 37.5787 197.375 38.4533 196.18 39.776C195.199 40.8427 194.026 41.76 192.66 42.528C191.338 43.296 189.908 43.9147 188.372 44.384C186.879 44.896 185.364 45.2587 183.828 45.472C182.292 45.728 180.82 45.856 179.412 45.856C176.554 45.856 174.1 45.1307 172.052 43.68C170.004 42.2293 168.17 40.3947 166.548 38.176C165.738 37.0667 165.268 35.8933 165.14 34.656C165.012 33.376 164.948 32.0533 164.948 30.688ZM168.148 31.776C168.148 33.3973 168.404 34.784 168.916 35.936C169.428 37.0453 170.111 37.984 170.964 38.752C171.86 39.52 172.863 40.1813 173.972 40.736C175.082 41.248 176.234 41.7173 177.428 42.144C176.788 40.4373 176.255 38.6667 175.828 36.832C175.402 34.9547 175.188 33.12 175.188 31.328C175.188 29.152 175.572 26.9973 176.34 24.864C177.108 22.688 177.983 20.64 178.964 18.72C177.94 19.0187 176.788 19.5947 175.508 20.448C174.271 21.3013 173.098 22.3253 171.988 23.52C170.922 24.7147 170.004 26.0373 169.236 27.488C168.511 28.896 168.148 30.3253 168.148 31.776ZM178.132 31.008C178.132 31.4347 178.346 31.7973 178.772 32.096C179.199 32.3947 179.796 32.544 180.564 32.544C181.332 32.544 182.122 32.1813 182.932 31.456C183.786 30.688 184.554 29.792 185.236 28.768C185.962 27.7013 186.538 26.592 186.964 25.44C187.434 24.2453 187.668 23.2213 187.668 22.368C187.668 21.856 187.583 21.3653 187.412 20.896C187.242 20.384 187.007 19.936 186.708 19.552C186.41 19.1253 186.026 18.784 185.556 18.528C185.13 18.272 184.66 18.144 184.148 18.144C183.252 18.144 182.42 18.6133 181.652 19.552C180.927 20.448 180.308 21.5573 179.796 22.88C179.284 24.16 178.879 25.5467 178.58 27.04C178.282 28.5333 178.132 29.856 178.132 31.008ZM189.396 18.592C189.823 19.232 190.122 19.8933 190.292 20.576C190.463 21.216 190.548 21.8347 190.548 22.432C190.548 24.0533 190.058 25.6533 189.076 27.232C188.138 28.768 187.05 30.2827 185.812 31.776C187.007 31.0933 188.052 30.432 188.948 29.792C189.844 29.152 190.591 28.4907 191.188 27.808C191.786 27.1253 192.234 26.4213 192.532 25.696C192.874 24.928 193.044 24.0747 193.044 23.136C193.044 22.88 192.959 22.496 192.788 21.984C192.618 21.472 192.383 20.96 192.084 20.448C191.786 19.936 191.402 19.5093 190.932 19.168C190.463 18.784 189.951 18.592 189.396 18.592ZM200.261 42.528C200.261 42.1867 200.431 41.952 200.773 41.824C201.114 41.696 201.498 41.6107 201.925 41.568C202.394 41.5253 202.842 41.4827 203.269 41.44C203.695 41.3547 204.015 41.2053 204.229 40.992C204.783 40.3947 205.146 39.3067 205.317 37.728C205.53 36.1493 205.637 34.4213 205.637 32.544C205.637 31.4347 205.615 30.3253 205.573 29.216C205.53 28.1067 205.466 27.104 205.381 26.208C205.338 25.312 205.274 24.5867 205.189 24.032C205.146 23.4347 205.103 23.072 205.061 22.944C204.89 22.2613 204.506 21.856 203.909 21.728C203.354 21.5573 202.757 21.4293 202.117 21.344C201.477 21.2587 200.901 21.1093 200.389 20.896C199.919 20.64 199.685 20.0853 199.685 19.232C199.685 18.848 199.834 18.6133 200.133 18.528C200.773 18.4853 201.583 18.4 202.565 18.272C203.589 18.144 204.655 18.016 205.765 17.888C206.874 17.7173 208.005 17.568 209.157 17.44C210.309 17.2693 211.333 17.12 212.229 16.992C213.167 16.8213 213.935 16.6933 214.533 16.608C215.13 16.5227 215.45 16.48 215.493 16.48C216.474 16.48 216.965 17.1413 216.965 18.464C216.965 19.3173 216.901 20.1707 216.773 21.024C216.687 21.8347 216.517 22.6027 216.261 23.328C216.815 22.8587 217.391 22.176 217.989 21.28C218.586 20.384 219.226 19.488 219.909 18.592C220.591 17.696 221.295 16.928 222.021 16.288C222.789 15.6053 223.599 15.264 224.453 15.264C225.519 15.264 226.501 15.52 227.397 16.032C228.293 16.544 229.061 17.2053 229.701 18.016C230.341 18.8267 230.831 19.744 231.173 20.768C231.557 21.7493 231.749 22.7307 231.749 23.712C231.749 24.48 231.642 25.2693 231.429 26.08C231.258 26.848 230.938 27.552 230.469 28.192C229.999 28.832 229.381 29.3653 228.613 29.792C227.887 30.2187 226.991 30.432 225.925 30.432C225.029 30.432 224.325 30.1333 223.813 29.536C223.301 28.9387 222.874 28.2133 222.533 27.36C222.234 26.5067 221.957 25.6107 221.701 24.672C221.445 23.6907 221.167 22.816 220.869 22.048C219.546 23.2853 218.479 24.5227 217.669 25.76C216.901 26.9547 216.303 28.1493 215.877 29.344C215.493 30.5387 215.237 31.712 215.109 32.864C215.023 34.016 214.981 35.168 214.981 36.32C214.981 36.9173 214.981 37.536 214.981 38.176C215.023 38.7733 215.045 39.5413 215.045 40.48C215.045 41.0347 215.215 41.3973 215.557 41.568C215.898 41.7387 216.282 41.888 216.709 42.016C217.135 42.1013 217.519 42.2293 217.861 42.4C218.202 42.528 218.373 42.848 218.373 43.36C218.373 43.872 218.117 44.2773 217.605 44.576C217.263 44.576 216.922 44.5547 216.581 44.512C216.239 44.512 215.898 44.512 215.557 44.512C213.509 44.512 211.525 44.576 209.605 44.704C207.685 44.8747 205.722 44.96 203.717 44.96C202.735 44.96 201.903 44.832 201.221 44.576C200.581 44.32 200.261 43.6373 200.261 42.528ZM207.045 41.824C207.343 41.952 207.749 42.016 208.261 42.016C208.73 42.016 209.221 41.952 209.733 41.824C210.287 41.696 210.778 41.5467 211.205 41.376C211.631 41.1627 211.973 40.928 212.229 40.672C212.527 40.3733 212.677 40.0747 212.677 39.776C212.677 37.984 212.698 36.3627 212.741 34.912C212.783 33.4613 212.847 32.0107 212.933 30.56C213.018 29.0667 213.146 27.4667 213.317 25.76C213.53 24.0533 213.807 22.0267 214.149 19.68C212.783 19.7227 211.439 19.808 210.117 19.936C208.794 20.0213 207.514 20.1067 206.277 20.192C206.874 21.344 207.279 22.688 207.493 24.224C207.749 25.76 207.877 27.4453 207.877 29.28C207.877 31.712 207.749 33.952 207.493 36C207.279 38.048 207.13 39.9893 207.045 41.824ZM223.301 18.464C223.301 19.36 223.386 20.3627 223.557 21.472C223.727 22.5387 223.962 23.5413 224.261 24.48C224.559 25.4187 224.901 26.208 225.285 26.848C225.711 27.488 226.159 27.808 226.629 27.808C227.61 27.808 228.314 27.4027 228.741 26.592C229.167 25.7387 229.381 24.8213 229.381 23.84C229.381 23.072 229.21 22.368 228.869 21.728C228.527 21.088 228.058 20.5333 227.461 20.064C226.906 19.552 226.266 19.168 225.541 18.912C224.815 18.6133 224.069 18.464 223.301 18.464Z" fill="url(#paint0_linear_8_30)"/>
<defs>
<linearGradient id="paint0_linear_8_30" x1="-3" y1="23" x2="233" y2="23" gradientUnits="userSpaceOnUse">
<stop stop-color="#65A30D"/>
<stop offset="1" stop-color="#BEF264"/>
</linearGradient>
</defs>
</svg>
